<svg width="1200" height="630" viewBox="0 0 1200 630" fill="none" xmlns="http://www.w3.org/2000/svg">
  <defs>
    <linearGradient id="bg" x1="0" y1="0" x2="0" y2="1">
      <stop offset="0%" stop-color="#0b0f14"/>
      <stop offset="100%" stop-color="#0d1117"/>
    </linearGradient>
    <radialGradient id="r" cx="0" cy="0" r="1" gradientUnits="userSpaceOnUse" gradientTransform="translate(1040 560) rotate(45) scale(520 340)">
      <stop offset="0" stop-color="#f85149" stop-opacity="0.22"/>
      <stop offset="1" stop-color="#f85149" stop-opacity="0"/>
    </radialGradient>
    <radialGradient id="b" cx="0" cy="0" r="1" gradientUnits="userSpaceOnUse" gradientTransform="translate(200 100) rotate(0) scale(440 300)">
      <stop offset="0" stop-color="#58a6ff" stop-opacity="0.18"/>
      <stop offset="1" stop-color="#58a6ff" stop-opacity="0"/>
    </radialGradient>
    <linearGradient id="serverGrad" x1="0" y1="0" x2="0" y2="1">
      <stop offset="0%" stop-color="#58a6ff" stop-opacity="0.8"/>
      <stop offset="100%" stop-color="#58a6ff" stop-opacity="0.3"/>
    </linearGradient>
  </defs>
  <rect width="1200" height="630" fill="url(#bg)"/>
  <rect width="1200" height="630" fill="url(#r)"/>
  <rect width="1200" height="630" fill="url(#b)"/>

  <!-- Server/Database visualization -->
  <g transform="translate(750, 150)">
    <!-- Database cylinder -->
    <ellipse cx="100" cy="80" rx="45" ry="12" fill="url(#serverGrad)" stroke="#58a6ff" stroke-width="2"/>
    <rect x="55" y="80" width="90" height="60" fill="url(#serverGrad)"/>
    <ellipse cx="100" cy="140" rx="45" ry="12" fill="url(#serverGrad)" stroke="#58a6ff" stroke-width="2"/>

    <!-- Connection pool visualization -->
    <g transform="translate(0, 200)">
      <!-- Pool connections as dots -->
      <circle cx="20" cy="20" r="4" fill="#22c55e"/>
      <circle cx="40" cy="20" r="4" fill="#22c55e"/>
      <circle cx="60" cy="20" r="4" fill="#22c55e"/>
      <circle cx="80" cy="20" r="4" fill="#22c55e"/>
      <circle cx="100" cy="20" r="4" fill="#22c55e"/>

      <circle cx="20" cy="40" r="4" fill="#f85149"/>
      <circle cx="40" cy="40" r="4" fill="#f85149"/>
      <circle cx="60" cy="40" r="4" fill="#f85149"/>
      <circle cx="80" cy="40" r="4" fill="#f85149"/>
      <circle cx="100" cy="40" r="4" fill="#f85149"/>

      <!-- Connection lines -->
      <path d="M 20 20 Q 50 -10 100 80" stroke="#22c55e" stroke-width="2" fill="none" opacity="0.6"/>
      <path d="M 60 20 Q 80 -5 100 80" stroke="#22c55e" stroke-width="2" fill="none" opacity="0.6"/>
      <path d="M 20 40 Q 50 70 100 80" stroke="#f85149" stroke-width="2" fill="none" opacity="0.4" stroke-dasharray="4,4"/>
      <path d="M 60 40 Q 80 65 100 80" stroke="#f85149" stroke-width="2" fill="none" opacity="0.4" stroke-dasharray="4,4"/>
    </g>

    <!-- Sidekiq worker boxes -->
    <g transform="translate(250, 50)">
      <rect x="0" y="0" width="60" height="40" rx="4" fill="#58a6ff" fill-opacity="0.3" stroke="#58a6ff" stroke-width="1"/>
      <text x="30" y="25" font-family="Inter" font-size="12" fill="#58a6ff" text-anchor="middle">SQ</text>

      <rect x="0" y="50" width="60" height="40" rx="4" fill="#58a6ff" fill-opacity="0.3" stroke="#58a6ff" stroke-width="1"/>
      <text x="30" y="75" font-family="Inter" font-size="12" fill="#58a6ff" text-anchor="middle">SQ</text>

      <rect x="0" y="100" width="60" height="40" rx="4" fill="#58a6ff" fill-opacity="0.3" stroke="#58a6ff" stroke-width="1"/>
      <text x="30" y="125" font-family="Inter" font-size="12" fill="#58a6ff" text-anchor="middle">SQ</text>
    </g>
  </g>

  <!-- Main text -->
  <g font-family="Inter, -apple-system, Segoe UI, Roboto, Helvetica, Arial, sans-serif" fill="#c9d1d9">
    <text x="80" y="280" font-size="52" font-weight="700">Deployment &amp; Sidekiq</text>
    <text x="80" y="330" font-size="52" font-weight="700">Mess Fixed</text>
    <text x="80" y="380" font-size="30" fill="#9ea7b3">Rails Production / Database Pools</text>
  </g>
</svg>
