<svg width="1200" height="630" viewBox="0 0 1200 630" fill="none" xmlns="http://www.w3.org/2000/svg">
  <defs>
    <linearGradient id="bg" x1="0" y1="0" x2="0" y2="1">
      <stop offset="0%" stop-color="#0b0f14"/>
      <stop offset="100%" stop-color="#0d1117"/>
    </linearGradient>
    <radialGradient id="accent1" cx="0" cy="0" r="1" gradientUnits="userSpaceOnUse" gradientTransform="translate(1040 540) rotate(45) scale(500 320)">
      <stop offset="0" stop-color="#f85149" stop-opacity="0.22"/>
      <stop offset="1" stop-color="#f85149" stop-opacity="0"/>
    </radialGradient>
    <radialGradient id="accent2" cx="0" cy="0" r="1" gradientUnits="userSpaceOnUse" gradientTransform="translate(200 120) rotate(0) scale(420 280)">
      <stop offset="0" stop-color="#58a6ff" stop-opacity="0.18"/>
      <stop offset="1" stop-color="#58a6ff" stop-opacity="0"/>
    </radialGradient>
  </defs>
  <rect width="1200" height="630" fill="url(#bg)"/>
  <rect width="1200" height="630" fill="url(#accent1)"/>
  <rect width="1200" height="630" fill="url(#accent2)"/>

  <!-- subtle grid lines -->
  <g opacity="0.08" stroke="#8b949e">
    <path d="M0 90H1200M0 180H1200M0 270H1200M0 360H1200M0 450H1200M0 540H1200"/>
    <path d="M120 0V630M240 0V630M360 0V630M480 0V630M600 0V630M720 0V630M840 0V630M960 0V630M1080 0V630"/>
  </g>

  <!-- headline -->
  <g font-family="Inter, -apple-system, Segoe UI, Roboto, Helvetica, Arial, sans-serif" fill="#c9d1d9">
    <text x="80" y="270" font-size="60" font-weight="700">The Rails Generation Gap</text>
    <text x="80" y="330" font-size="30" fill="#9ea7b3">Mentorship • Bootcamps • Community</text>
  </g>

  <!-- rails-ish bars -->
  <g transform="translate(80,410)" fill="#f85149" opacity="0.9">
    <rect x="0" y="0" width="10" height="60" rx="2"/>
    <rect x="22" y="-20" width="10" height="80" rx="2"/>
    <rect x="44" y="-40" width="10" height="100" rx="2"/>
    <rect x="66" y="-60" width="10" height="120" rx="2"/>
  </g>
</svg>

