<svg width="1200" height="630" viewBox="0 0 1200 630" fill="none" xmlns="http://www.w3.org/2000/svg">
  <defs>
    <linearGradient id="bg2" x1="0" y1="0" x2="0" y2="1">
      <stop offset="0%" stop-color="#0b0f14"/>
      <stop offset="100%" stop-color="#0d1117"/>
    </linearGradient>
    <radialGradient id="glowR" cx="0" cy="0" r="1" gradientUnits="userSpaceOnUse" gradientTransform="translate(1020 520) rotate(30) scale(520 340)">
      <stop offset="0" stop-color="#f85149" stop-opacity="0.22"/>
      <stop offset="1" stop-color="#f85149" stop-opacity="0"/>
    </radialGradient>
    <radialGradient id="glowB" cx="0" cy="0" r="1" gradientUnits="userSpaceOnUse" gradientTransform="translate(240 140) rotate(0) scale(440 300)">
      <stop offset="0" stop-color="#58a6ff" stop-opacity="0.18"/>
      <stop offset="1" stop-color="#58a6ff" stop-opacity="0"/>
    </radialGradient>
  </defs>
  <rect width="1200" height="630" fill="url(#bg2)"/>
  <rect width="1200" height="630" fill="url(#glowR)"/>
  <rect width="1200" height="630" fill="url(#glowB)"/>

  <!-- dotted motif -->
  <g opacity="0.12" fill="#8b949e">
    <circle cx="150" cy="120" r="2"/>
    <circle cx="170" cy="140" r="2"/>
    <circle cx="190" cy="160" r="2"/>
    <circle cx="210" cy="180" r="2"/>
    <circle cx="230" cy="200" r="2"/>
  </g>

  <g font-family="Inter, -apple-system, Segoe UI, Roboto, Helvetica, Arial, sans-serif" fill="#c9d1d9">
    <text x="80" y="270" font-size="56" font-weight="700">Rails Before Bootcamps</text>
    <text x="80" y="330" font-size="30" fill="#9ea7b3">Screencasts • Mailing Lists • IRC</text>
  </g>

  <!-- playful brackets -->
  <g stroke="#f85149" stroke-width="6" opacity="0.9">
    <path d="M1100 220c-30 0-50 20-50 50v90c0 30-20 50-50 50" fill="none"/>
    <path d="M950 410c30 0 50-20 50-50v-90c0-30 20-50 50-50" fill="none"/>
  </g>
</svg>

