<?xml version="1.0" encoding="UTF-8"?>
<svg width="1200" height="630" viewBox="0 0 1200 630" fill="none" xmlns="http://www.w3.org/2000/svg">
  <defs>
    <linearGradient id="bg" x1="0" y1="0" x2="1200" y2="630" gradientUnits="userSpaceOnUse">
      <stop offset="0" stop-color="#0d1117"/>
      <stop offset="1" stop-color="#161b22"/>
    </linearGradient>
    <linearGradient id="accent" x1="0" y1="0" x2="1" y2="1">
      <stop offset="0" stop-color="#58A6FF"/>
      <stop offset="1" stop-color="#64FFDA"/>
    </linearGradient>
    <filter id="glow"><feGaussianBlur stdDeviation="18"/></filter>
  </defs>
  <rect width="1200" height="630" fill="url(#bg)"/>

  <!-- waveform -->
  <path d="M100 420 C160 420 180 300 240 300 C300 300 320 420 380 420 C440 420 460 300 520 300 C580 300 600 420 660 420 C720 420 740 300 800 300 C860 300 880 420 940 420 C1000 420 1020 300 1080 300" stroke="url(#accent)" stroke-width="10" fill="none"/>

  <!-- optimistic check -->
  <g transform="translate(180,160)">
    <circle cx="80" cy="80" r="60" fill="#21262d" stroke="#30363d"/>
    <path d="M50 82 L74 104 L112 56" stroke="#3fb950" stroke-width="12" fill="none" stroke-linecap="round" stroke-linejoin="round"/>
  </g>

  <!-- ws dot -->
  <circle cx="980" cy="200" r="8" fill="#64FFDA"/>

  <!-- title -->
  <g font-family="-apple-system,Segoe UI,Helvetica,Arial,sans-serif" fill="#f0f6fc">
    <text x="180" y="120" font-size="40" font-weight="700">Real‑Time &amp; Optimistic UI</text>
    <text x="180" y="150" font-size="24" fill="#8b949e">Apollo Client + Rails (ActionCable/AnyCable)</text>
  </g>

  <!-- glows -->
  <circle cx="260" cy="210" r="70" fill="#3fb950" opacity="0.10" filter="url(#glow)"/>
  <circle cx="760" cy="380" r="90" fill="#58A6FF" opacity="0.12" filter="url(#glow)"/>
</svg>

